<svg width="23" height="25" viewBox="0 0 23 25" fill="none" xmlns="http://www.w3.org/2000/svg">
<path d="M0.6425 5.795C0.24625 6.01875 0 6.44375 0 6.90375V18.0912C0 18.5537 0.24625 18.9762 0.6425 19.2C2.63875 20.3262 8.7125 23.7488 10.6488 24.84C10.8387 24.9462 11.0475 25 11.2575 25C11.4625 25 11.6675 24.9487 11.8538 24.8462C13.79 23.7775 19.8412 20.4425 21.8462 19.3362C22.25 19.115 22.5 18.6875 22.5 18.2225V6.90375C22.5 6.44375 22.2537 6.01875 21.8563 5.795C19.8625 4.67125 13.8013 1.255 11.8575 0.16C11.6687 0.05375 11.4587 0 11.25 0C11.04 0 10.8313 0.05375 10.6425 0.16C8.69875 1.255 2.63625 4.67125 0.6425 5.795ZM20.625 8.43875V17.845L12.1875 22.4975V13.025L20.625 8.43875ZM1.875 17.72V8.3975L10.3125 13.085V22.4737L1.875 17.72ZM2.795 6.75875L11.25 1.9925L19.7513 6.785L11.25 11.43L2.795 6.75875Z" fill="black"/>
</svg>
